<svg viewBox="0 0 280 200" fill="none" xmlns="http://www.w3.org/2000/svg">
  <defs>
    <radialGradient id="g" cx="50%" cy="18%" r="55%">
      <stop offset="0%" stop-color="#FF6500" stop-opacity="0.45"/>
      <stop offset="55%" stop-color="#FF6500" stop-opacity="0.08"/>
      <stop offset="100%" stop-color="#080908" stop-opacity="0"/>
    </radialGradient>
    <linearGradient id="c" x1="140" y1="8" x2="140" y2="150">
      <stop offset="0%" stop-color="#FF6500" stop-opacity="0.35"/>
      <stop offset="100%" stop-color="#FF6500" stop-opacity="0"/>
    </linearGradient>
    <linearGradient id="f" x1="40" y1="160" x2="240" y2="190">
      <stop offset="0%" stop-color="#121212"/>
      <stop offset="50%" stop-color="#1a1410"/>
      <stop offset="100%" stop-color="#121212"/>
    </linearGradient>
  </defs>
  <rect width="280" height="200" rx="16" fill="#080908"/>
  <ellipse cx="140" cy="36" rx="90" ry="34" fill="url(#g)"/>
  <path d="M110 10 L170 10 L230 158 L50 158 Z" fill="url(#c)"/>
  <ellipse cx="140" cy="168" rx="98" ry="18" fill="url(#f)"/>
  <ellipse cx="140" cy="168" rx="72" ry="10" fill="#FF6500" fill-opacity="0.12"/>
  <path d="M214 28 L220 18 L226 28 L234 22 L232 36 H206 L204 22 Z" stroke="#FF6500" stroke-width="1.6" stroke-linejoin="round" fill="none"/>
  <circle cx="220" cy="16" r="1.6" fill="#B8FF00"/>
  <path d="M140 70 C122 70 108 84 108 102 C108 124 140 154 140 154 C140 154 172 124 172 102 C172 84 158 70 140 70 Z" fill="#FF6500" fill-opacity="0.18" stroke="#FF6500" stroke-width="2.5"/><circle cx="140" cy="100" r="12" fill="#F4F4F1"/><circle cx="140" cy="100" r="5" fill="#080908"/>
</svg>

