<svg viewBox="0 0 280 200" fill="none" xmlns="http://www.w3.org/2000/svg">
  <defs>
    <radialGradient id="g" cx="50%" cy="18%" r="55%">
      <stop offset="0%" stop-color="#FF6500" stop-opacity="0.45"/>
      <stop offset="55%" stop-color="#FF6500" stop-opacity="0.08"/>
      <stop offset="100%" stop-color="#080908" stop-opacity="0"/>
    </radialGradient>
    <linearGradient id="c" x1="140" y1="8" x2="140" y2="150">
      <stop offset="0%" stop-color="#FF6500" stop-opacity="0.35"/>
      <stop offset="100%" stop-color="#FF6500" stop-opacity="0"/>
    </linearGradient>
    <linearGradient id="f" x1="40" y1="160" x2="240" y2="190">
      <stop offset="0%" stop-color="#121212"/>
      <stop offset="50%" stop-color="#1a1410"/>
      <stop offset="100%" stop-color="#121212"/>
    </linearGradient>
  </defs>
  <rect width="280" height="200" rx="16" fill="#080908"/>
  <ellipse cx="140" cy="36" rx="90" ry="34" fill="url(#g)"/>
  <path d="M110 10 L170 10 L230 158 L50 158 Z" fill="url(#c)"/>
  <ellipse cx="140" cy="168" rx="98" ry="18" fill="url(#f)"/>
  <ellipse cx="140" cy="168" rx="72" ry="10" fill="#FF6500" fill-opacity="0.12"/>
  <path d="M214 28 L220 18 L226 28 L234 22 L232 36 H206 L204 22 Z" stroke="#FF6500" stroke-width="1.6" stroke-linejoin="round" fill="none"/>
  <circle cx="220" cy="16" r="1.6" fill="#B8FF00"/>
  <rect x="100" y="70" width="80" height="96" rx="8" fill="#121212" stroke="#F4F4F1" stroke-width="2"/><circle cx="140" cy="100" r="18" fill="#FF6500" fill-opacity="0.25" stroke="#FF6500" stroke-width="2"/><circle cx="140" cy="96" r="8" fill="#F4F4F1"/><path d="M126 116 C126 108 154 108 154 116" stroke="#F4F4F1" stroke-width="2" fill="none"/><rect x="114" y="130" width="52" height="6" rx="2" fill="rgba(244,244,241,0.35)"/><rect x="130" y="154" width="20" height="4" rx="1" fill="#B8FF00" fill-opacity="0.8"/>
</svg>

